<?xml version="1.0" encoding="UTF-8"?> <!-- Generator: Adobe Illustrator 21.1.0, SVG Export Plug-In . SVG Version: 6.00 Build 0) --> <svg xmlns="http://www.w3.org/2000/svg" xmlns:xlink="http://www.w3.org/1999/xlink" id="Layer_1" x="0px" y="0px" viewBox="0 0 553.4 176.6" style="enable-background:new 0 0 553.4 176.6;" xml:space="preserve"> <style type="text/css"> .st0{fill-rule:evenodd;clip-rule:evenodd;fill:url(#SVGID_1_);} .st1{fill-rule:evenodd;clip-rule:evenodd;fill:url(#SVGID_2_);} .st2{fill-rule:evenodd;clip-rule:evenodd;fill:url(#SVGID_3_);} .st3{fill-rule:evenodd;clip-rule:evenodd;fill:url(#SVGID_4_);} .st4{fill-rule:evenodd;clip-rule:evenodd;fill:url(#SVGID_5_);} .st5{fill-rule:evenodd;clip-rule:evenodd;fill:url(#SVGID_6_);} .st6{fill-rule:evenodd;clip-rule:evenodd;fill:url(#SVGID_7_);} .st7{fill-rule:evenodd;clip-rule:evenodd;fill:url(#SVGID_8_);} .st8{fill-rule:evenodd;clip-rule:evenodd;fill:url(#SVGID_9_);} .st9{fill-rule:evenodd;clip-rule:evenodd;fill:url(#SVGID_10_);} .st10{fill-rule:evenodd;clip-rule:evenodd;fill:url(#SVGID_11_);} .st11{fill-rule:evenodd;clip-rule:evenodd;fill:url(#SVGID_12_);} .st12{fill-rule:evenodd;clip-rule:evenodd;fill:url(#SVGID_13_);} .st13{fill-rule:evenodd;clip-rule:evenodd;fill:url(#SVGID_14_);} .st14{fill-rule:evenodd;clip-rule:evenodd;fill:url(#SVGID_15_);} .st15{fill-rule:evenodd;clip-rule:evenodd;fill:url(#SVGID_16_);} .st16{fill-rule:evenodd;clip-rule:evenodd;fill:url(#SVGID_17_);} .st17{fill-rule:evenodd;clip-rule:evenodd;fill:url(#SVGID_18_);} .st18{fill-rule:evenodd;clip-rule:evenodd;fill:#F7FCFD;} .st19{fill-rule:evenodd;clip-rule:evenodd;fill:#EFF3F4;} </style> <g> <g> <linearGradient id="SVGID_1_" gradientUnits="userSpaceOnUse" x1="-6.3756" y1="-60.5726" x2="244.3465" y2="248.6526"> <stop offset="0" style="stop-color:#20C4F4"></stop> <stop offset="0.1461" style="stop-color:#2FC2DC"></stop> <stop offset="0.4667" style="stop-color:#3EBDA7"></stop> <stop offset="0.9353" style="stop-color:#44B653"></stop> <stop offset="1" style="stop-color:#43B649"></stop> </linearGradient> <path class="st0" d="M58.8,36.1h32.8c2.1,0,3.9,1.8,3.9,3.9v0c0,2.1-1.8,3.9-3.9,3.9H58.8c-2.1,0-3.9-1.8-3.9-3.9v0 C54.9,37.8,56.6,36.1,58.8,36.1z"></path> <linearGradient id="SVGID_2_" gradientUnits="userSpaceOnUse" x1="-29.2565" y1="-32.2357" x2="196.0102" y2="245.5943"> <stop offset="0" style="stop-color:#20C4F4"></stop> <stop offset="0.1461" style="stop-color:#2FC2DC"></stop> <stop offset="0.4667" style="stop-color:#3EBDA7"></stop> <stop offset="0.9353" style="stop-color:#44B653"></stop> <stop offset="1" style="stop-color:#43B649"></stop> </linearGradient> <path class="st1" d="M24.8,36.1h8.9c2.1,0,3.9,1.8,3.9,3.9l0,0c0,2.1-1.8,3.9-3.9,3.9h-8.9c-2.1,0-3.9-1.8-3.9-3.9l0,0 C20.9,37.8,22.7,36.1,24.8,36.1z"></path> <linearGradient id="SVGID_3_" gradientUnits="userSpaceOnUse" x1="-11.9528" y1="-51.498" x2="224.1602" y2="239.7093"> <stop offset="0" style="stop-color:#20C4F4"></stop> <stop offset="0.1461" style="stop-color:#2FC2DC"></stop> <stop offset="0.4667" style="stop-color:#3EBDA7"></stop> <stop offset="0.9353" style="stop-color:#44B653"></stop> <stop offset="1" style="stop-color:#43B649"></stop> </linearGradient> <path class="st2" d="M43.1,22.1h15.6c2.1,0,3.9,1.8,3.9,3.9l0,0c0,2.1-1.8,3.9-3.9,3.9H43.1c-2.1,0-3.9-1.8-3.9-3.9l0,0 C39.2,23.8,40.9,22.1,43.1,22.1z"></path> <linearGradient id="SVGID_4_" gradientUnits="userSpaceOnUse" x1="-43.6473" y1="-31.0584" x2="204.3666" y2="274.8268"> <stop offset="0" style="stop-color:#20C4F4"></stop> <stop offset="0.1461" style="stop-color:#2FC2DC"></stop> <stop offset="0.4667" style="stop-color:#3EBDA7"></stop> <stop offset="0.9353" style="stop-color:#44B653"></stop> <stop offset="1" style="stop-color:#43B649"></stop> </linearGradient> <path class="st3" d="M12.9,52.3h28.4c2.1,0,3.9,1.8,3.9,3.9l0,0c0,2.1-1.8,3.9-3.9,3.9H12.9c-2.1,0-3.9-1.8-3.9-3.9l0,0 C9,54.1,10.8,52.3,12.9,52.3z"></path> <linearGradient id="SVGID_5_" gradientUnits="userSpaceOnUse" x1="-6.3272" y1="-59.5574" x2="251.6413" y2="258.605"> <stop offset="0" style="stop-color:#20C4F4"></stop> <stop offset="0.1461" style="stop-color:#2FC2DC"></stop> <stop offset="0.4667" style="stop-color:#3EBDA7"></stop> <stop offset="0.9353" style="stop-color:#44B653"></stop> <stop offset="1" style="stop-color:#43B649"></stop> </linearGradient> <path class="st4" d="M88,83.9h50.3c2.1,0,3.9,1.8,3.9,3.9l0,0c0,2.1-1.8,3.9-3.9,3.9H88c-2.1,0-3.9-1.8-3.9-3.9l0,0 C84.1,85.6,85.8,83.9,88,83.9z"></path> <linearGradient id="SVGID_6_" gradientUnits="userSpaceOnUse" x1="-54.7268" y1="-21.0297" x2="193.5869" y2="285.2251"> <stop offset="0" style="stop-color:#20C4F4"></stop> <stop offset="0.1461" style="stop-color:#2FC2DC"></stop> <stop offset="0.4667" style="stop-color:#3EBDA7"></stop> <stop offset="0.9353" style="stop-color:#44B653"></stop> <stop offset="1" style="stop-color:#43B649"></stop> </linearGradient> <path class="st5" d="M6.6,68.5h28.8c2.1,0,3.9,1.8,3.9,3.9l0,0c0,2.1-1.8,3.9-3.9,3.9H6.6c-2.1,0-3.9-1.8-3.9-3.9l0,0 C2.7,70.2,4.4,68.5,6.6,68.5z"></path> <linearGradient id="SVGID_7_" gradientUnits="userSpaceOnUse" x1="19.5166" y1="-68.7669" x2="261.5534" y2="229.7465"> <stop offset="0" style="stop-color:#20C4F4"></stop> <stop offset="0.1461" style="stop-color:#2FC2DC"></stop> <stop offset="0.4667" style="stop-color:#3EBDA7"></stop> <stop offset="0.9353" style="stop-color:#44B653"></stop> <stop offset="1" style="stop-color:#43B649"></stop> </linearGradient> <path class="st6" d="M131.3,52.3h-20.9c-2.1,0-3.9,1.8-3.9,3.9l0,0c0,2.1,1.8,3.9,3.9,3.9h20.9c2.1,0,3.9-1.8,3.9-3.9l0,0 C135.2,54.1,133.5,52.3,131.3,52.3z"></path> <linearGradient id="SVGID_8_" gradientUnits="userSpaceOnUse" x1="17.2058" y1="-64.0215" x2="259.2382" y2="234.4864"> <stop offset="0" style="stop-color:#20C4F4"></stop> <stop offset="0.1461" style="stop-color:#2FC2DC"></stop> <stop offset="0.4667" style="stop-color:#3EBDA7"></stop> <stop offset="0.9353" style="stop-color:#44B653"></stop> <stop offset="1" style="stop-color:#43B649"></stop> </linearGradient> <path class="st7" d="M138.2,68.5h-20.9c-2.1,0-3.9,1.8-3.9,3.9l0,0c0,2.1,1.8,3.9,3.9,3.9h20.9c2.1,0,3.9-1.8,3.9-3.9l0,0 C142.2,70.2,140.4,68.5,138.2,68.5z"></path> <linearGradient id="SVGID_9_" gradientUnits="userSpaceOnUse" x1="-50.0259" y1="-15.6471" x2="200.6958" y2="293.5777"> <stop offset="0" style="stop-color:#20C4F4"></stop> <stop offset="0.1461" style="stop-color:#2FC2DC"></stop> <stop offset="0.4667" style="stop-color:#3EBDA7"></stop> <stop offset="0.9353" style="stop-color:#44B653"></stop> <stop offset="1" style="stop-color:#43B649"></stop> </linearGradient> <path class="st8" d="M56.8,140.2h32.8c2.1,0,3.9-1.8,3.9-3.9l0,0c0-2.1-1.8-3.9-3.9-3.9H56.8c-2.1,0-3.9,1.8-3.9,3.9l0,0 C52.9,138.5,54.6,140.2,56.8,140.2z"></path> <linearGradient id="SVGID_10_" gradientUnits="userSpaceOnUse" x1="-72.4025" y1="8.1769" x2="168.0365" y2="304.7197"> <stop offset="0" style="stop-color:#20C4F4"></stop> <stop offset="0.1461" style="stop-color:#2FC2DC"></stop> <stop offset="0.4667" style="stop-color:#3EBDA7"></stop> <stop offset="0.9353" style="stop-color:#44B653"></stop> <stop offset="1" style="stop-color:#43B649"></stop> </linearGradient> <path class="st9" d="M21.8,140.2h19.3c2.1,0,3.9-1.8,3.9-3.9l0,0c0-2.1-1.8-3.9-3.9-3.9H21.8c-2.1,0-3.9,1.8-3.9,3.9l0,0 C17.9,138.5,19.7,140.2,21.8,140.2z"></path> <linearGradient id="SVGID_11_" gradientUnits="userSpaceOnUse" x1="-68.0955" y1="-2.8836" x2="184.5236" y2="308.6813"> <stop offset="0" style="stop-color:#20C4F4"></stop> <stop offset="0.1461" style="stop-color:#2FC2DC"></stop> <stop offset="0.4667" style="stop-color:#3EBDA7"></stop> <stop offset="0.9353" style="stop-color:#44B653"></stop> <stop offset="1" style="stop-color:#43B649"></stop> </linearGradient> <path class="st10" d="M37.9,154.2h36.5c2.1,0,3.9-1.8,3.9-3.9l0,0c0-2.1-1.8-3.9-3.9-3.9H37.9c-2.1,0-3.9,1.8-3.9,3.9l0,0 C34,152.5,35.7,154.2,37.9,154.2z"></path> <linearGradient id="SVGID_12_" gradientUnits="userSpaceOnUse" x1="-70.4016" y1="13.4958" x2="156.0602" y2="292.7998"> <stop offset="0" style="stop-color:#20C4F4"></stop> <stop offset="0.1461" style="stop-color:#2FC2DC"></stop> <stop offset="0.4667" style="stop-color:#3EBDA7"></stop> <stop offset="0.9353" style="stop-color:#44B653"></stop> <stop offset="1" style="stop-color:#43B649"></stop> </linearGradient> <path class="st11" d="M11.3,124h9.5c2.1,0,3.9-1.8,3.9-3.9l0,0c0-2.1-1.8-3.9-3.9-3.9h-9.5c-2.1,0-3.9,1.8-3.9,3.9l0,0 C7.3,122.2,9.1,124,11.3,124z"></path> <linearGradient id="SVGID_13_" gradientUnits="userSpaceOnUse" x1="-68.595" y1="-6.7566" x2="180.31" y2="300.2275"> <stop offset="0" style="stop-color:#20C4F4"></stop> <stop offset="0.1461" style="stop-color:#2FC2DC"></stop> <stop offset="0.4667" style="stop-color:#3EBDA7"></stop> <stop offset="0.9353" style="stop-color:#44B653"></stop> <stop offset="1" style="stop-color:#43B649"></stop> </linearGradient> <path class="st12" d="M6.3,107.8H36c2.1,0,3.9-1.8,3.9-3.9l0,0c0-2.1-1.8-3.9-3.9-3.9H6.3c-2.1,0-3.9,1.8-3.9,3.9l0,0 C2.4,106.1,4.1,107.8,6.3,107.8z"></path> <linearGradient id="SVGID_14_" gradientUnits="userSpaceOnUse" x1="-54.9307" y1="-28.0967" x2="207.7695" y2="295.9016"> <stop offset="0" style="stop-color:#20C4F4"></stop> <stop offset="0.1461" style="stop-color:#2FC2DC"></stop> <stop offset="0.4667" style="stop-color:#3EBDA7"></stop> <stop offset="0.9353" style="stop-color:#44B653"></stop> <stop offset="1" style="stop-color:#43B649"></stop> </linearGradient> <path class="st13" d="M3.9,83.9h70.3c2.1,0,3.9,1.8,3.9,3.9l0,0c0,2.1-1.8,3.9-3.9,3.9H3.9c-2.1,0-3.9-1.8-3.9-3.9l0,0 C0,85.6,1.8,83.9,3.9,83.9z"></path> <linearGradient id="SVGID_15_" gradientUnits="userSpaceOnUse" x1="8.1056" y1="-68.9792" x2="252.7134" y2="232.705"> <stop offset="0" style="stop-color:#20C4F4"></stop> <stop offset="0.1461" style="stop-color:#2FC2DC"></stop> <stop offset="0.4667" style="stop-color:#3EBDA7"></stop> <stop offset="0.9353" style="stop-color:#44B653"></stop> <stop offset="1" style="stop-color:#43B649"></stop> </linearGradient> <path class="st14" d="M73.2,22.1H97c2.1,0,3.9,1.8,3.9,3.9l0,0c0,2.1-1.8,3.9-3.9,3.9H73.2c-2.1,0-3.9-1.8-3.9-3.9l0,0 C69.3,23.8,71,22.1,73.2,22.1z"></path> <linearGradient id="SVGID_16_" gradientUnits="userSpaceOnUse" x1="24.3507" y1="-69.4676" x2="258.4023" y2="219.1973"> <stop offset="0" style="stop-color:#20C4F4"></stop> <stop offset="0.1461" style="stop-color:#2FC2DC"></stop> <stop offset="0.4667" style="stop-color:#3EBDA7"></stop> <stop offset="0.9353" style="stop-color:#44B653"></stop> <stop offset="1" style="stop-color:#43B649"></stop> </linearGradient> <path class="st15" d="M106.1,36.1h14.1c2.1,0,3.9,1.8,3.9,3.9l0,0c0,2.1-1.8,3.9-3.9,3.9h-14.1c-2.1,0-3.9-1.8-3.9-3.9l0,0 C102.2,37.8,103.9,36.1,106.1,36.1z"></path> <linearGradient id="SVGID_17_" gradientUnits="userSpaceOnUse" x1="-54.1998" y1="3.9968" x2="172.262" y2="283.3009"> <stop offset="0" style="stop-color:#20C4F4"></stop> <stop offset="0.1461" style="stop-color:#2FC2DC"></stop> <stop offset="0.4667" style="stop-color:#3EBDA7"></stop> <stop offset="0.9353" style="stop-color:#44B653"></stop> <stop offset="1" style="stop-color:#43B649"></stop> </linearGradient> <path class="st16" d="M35.2,124h9.5c2.1,0,3.9-1.8,3.9-3.9l0,0c0-2.1-1.8-3.9-3.9-3.9h-9.5c-2.1,0-3.9,1.8-3.9,3.9l0,0 C31.3,122.2,33,124,35.2,124z"></path> <linearGradient id="SVGID_18_" gradientUnits="userSpaceOnUse" x1="-25.5271" y1="1.4522" x2="195.0188" y2="273.4601"> <stop offset="0" style="stop-color:#20C4F4"></stop> <stop offset="0.1461" style="stop-color:#2FC2DC"></stop> <stop offset="0.4667" style="stop-color:#3EBDA7"></stop> <stop offset="0.9353" style="stop-color:#44B653"></stop> <stop offset="1" style="stop-color:#43B649"></stop> </linearGradient> <path class="st17" d="M91.8,154.2h6.8c2.1,0,3.9-1.8,3.9-3.9l0,0c0-2.1-1.8-3.9-3.9-3.9h-6.8c-2.1,0-3.9,1.8-3.9,3.9l0,0 C87.9,152.5,89.6,154.2,91.8,154.2z"></path> </g> <path class="st18" d="M241.2,115.2c-1.3-2.6-3.9-3.3-6.5-3.3c-3.1,0-6.4,1.4-6.4,4.8c0,3.7,3.1,4.6,6.5,5c2.2,0.2,3.8,0.9,3.8,2.4 c0,1.8-1.8,2.5-3.8,2.5c-2,0-3.9-0.8-4.7-2.6l-2.6,1.3c1.2,3,3.8,4.1,7.2,4.1c3.7,0,7-1.6,7-5.3c0-4-3.2-4.9-6.7-5.3 c-2-0.2-3.7-0.6-3.7-2.1c0-1.2,1.1-2.2,3.4-2.2c1.8,0,3.4,0.9,3.9,1.8L241.2,115.2z"></path> <path class="st18" d="M288.9,112.2c-5.7,0-8.5,4.4-8.5,8.7c0,4.4,2.7,8.5,8.5,8.5s8.5-4.3,8.5-8.6 C297.4,116.5,294.6,112.2,288.9,112.2L288.9,112.2z M288.9,115c3.9,0,5.5,3.1,5.4,5.9c0,2.7-1.5,5.7-5.4,5.7s-5.4-2.9-5.4-5.6 C283.4,118.1,285,115,288.9,115z"></path> <path class="st18" d="M349.1,124.8c-1.1,1.1-2.7,1.7-4.2,1.7c-4.1,0-5.7-2.9-5.7-5.6c0-2.8,1.7-5.8,5.7-5.8c1.4,0,2.9,0.5,4,1.6 l2.1-2c-1.7-1.7-3.8-2.5-6.1-2.5c-6,0-8.8,4.4-8.8,8.7c0,4.3,2.6,8.5,8.8,8.5c2.4,0,4.6-0.8,6.3-2.5L349.1,124.8z"></path> <rect x="390" y="112.5" class="st18" width="3.1" height="16.6"></rect> <path class="st18" d="M445.4,126h-9.3v-3.7h9v-2.9h-9v-3.8h9.3v-3H433c0,5.5,0,11.1,0,16.6h12.4V126z"></path> <path class="st18" d="M490,129.1h3.1v-13.8h5.3v-2.8c-4.8,0-8.9,0-13.6,0v2.8h5.3V129.1z"></path> <polygon class="st18" points="541,112.5 537.3,112.5 537.3,112.6 543.7,122.2 543.7,129.1 546.8,129.1 546.8,122.2 553.4,112.6 553.4,112.5 549.6,112.5 545.2,119.3 "></polygon> <path class="st18" d="M230.9,79c0.1,4.3,1.2,7.4,3.3,9.4c2.1,2,5.2,3,9.4,3c3.6,0,7.1-0.6,10.3-1.9c0.4,0.8,0.7,1.7,1,2.8 c0.3,1.1,0.4,2.2,0.5,3.3c-1.7,0.7-3.5,1.2-5.5,1.6c-2,0.4-4.2,0.5-6.7,0.5c-3.6,0-6.6-0.5-9.2-1.5c-2.6-1-4.7-2.4-6.3-4.2 c-1.7-1.8-2.9-4-3.6-6.4c-0.8-2.5-1.1-5.2-1.1-8.2c0-2.9,0.4-5.6,1.1-8.1c0.7-2.5,1.9-4.7,3.4-6.6c1.5-1.9,3.5-3.3,5.8-4.4 c2.3-1.1,5.1-1.6,8.2-1.6c2.7,0,5.1,0.5,7.1,1.4c2,0.9,3.7,2.2,5.1,3.8c1.4,1.6,2.4,3.5,3.1,5.7c0.7,2.2,1.1,4.6,1.1,7.2 c0,0.7,0,1.5-0.1,2.3c-0.1,0.8-0.1,1.5-0.2,2H230.9L230.9,79z M250.4,73.3c0-1.4-0.2-2.8-0.6-4.1c-0.4-1.3-0.9-2.4-1.7-3.4 c-0.7-1-1.7-1.7-2.8-2.3c-1.1-0.6-2.5-0.9-4.1-0.9c-3.1,0-5.5,0.9-7.2,2.8c-1.7,1.9-2.7,4.5-3,7.9H250.4z"></path> <path class="st18" d="M267.8,57.5c0.6-0.1,1.1-0.2,1.6-0.2c0.5-0.1,1.1-0.1,1.6-0.1c0.6,0,1.1,0,1.6,0.1c0.5,0.1,1,0.1,1.6,0.2 c0.2,0.8,0.3,1.8,0.5,3.1c0.2,1.3,0.2,2.4,0.2,3.3c0.5-0.9,1.2-1.7,2-2.6c0.8-0.9,1.7-1.6,2.7-2.3c1-0.7,2.2-1.2,3.5-1.7 c1.3-0.4,2.8-0.7,4.4-0.7c4.5,0,7.8,1.3,9.9,3.9c2.1,2.6,3.2,6.4,3.2,11.4v24.9c-0.6,0.1-1.2,0.2-1.9,0.2c-0.7,0.1-1.4,0.1-1.9,0.1 c-0.6,0-1.2,0-1.9-0.1c-0.7-0.1-1.3-0.1-1.9-0.2V73.9c0-3.6-0.6-6.3-1.7-8s-2.9-2.6-5.4-2.6c-1.4,0-2.8,0.3-4.1,0.8 c-1.3,0.5-2.4,1.3-3.4,2.4c-1,1.1-1.7,2.5-2.3,4.2c-0.6,1.7-0.9,3.8-0.9,6.2v19.9c-0.6,0.1-1.2,0.2-1.9,0.2 c-0.7,0.1-1.3,0.1-1.9,0.1c-0.6,0-1.2,0-1.9-0.1c-0.7-0.1-1.4-0.1-1.9-0.2V57.5z"></path> <path class="st18" d="M312,40.6c0.6-0.1,1.2-0.2,1.9-0.2c0.7-0.1,1.3-0.1,1.9-0.1c0.6,0,1.2,0,1.9,0.1c0.7,0.1,1.4,0.1,1.9,0.2 v22.8c0.5-0.7,1-1.5,1.7-2.3c0.7-0.8,1.5-1.6,2.5-2.3c1-0.7,2.1-1.2,3.4-1.7c1.3-0.4,2.7-0.7,4.3-0.7c4.5,0,7.8,1.3,10,3.9 c2.2,2.6,3.3,6.4,3.3,11.4v24.9c-0.6,0.1-1.2,0.2-1.9,0.2c-0.7,0.1-1.3,0.1-1.9,0.1c-0.6,0-1.2,0-1.9-0.1c-0.7-0.1-1.3-0.1-1.9-0.2 V73.9c0-3.6-0.6-6.3-1.8-8s-3-2.6-5.5-2.6c-1.4,0-2.7,0.2-4,0.7c-1.3,0.5-2.4,1.3-3.4,2.3c-1,1-1.7,2.4-2.3,4.1 c-0.6,1.7-0.8,3.7-0.8,6.1v20.1c-0.6,0.1-1.2,0.2-1.9,0.2c-0.7,0.1-1.4,0.1-1.9,0.1c-0.5,0-1.1,0-1.8-0.1c-0.7-0.1-1.4-0.1-1.9-0.2 V40.6z"></path> <path class="st18" d="M377,78.3c-0.8-0.1-1.7-0.2-2.9-0.3c-1.2-0.1-2.2-0.2-3-0.2c-3.2,0-5.6,0.6-7.2,1.8c-1.7,1.2-2.5,3-2.5,5.4 c0,1.5,0.3,2.7,0.8,3.6c0.6,0.9,1.3,1.5,2.1,2c0.8,0.5,1.8,0.7,2.8,0.8c1,0.1,2,0.2,2.9,0.2c1.2,0,2.4-0.1,3.6-0.2 c1.2-0.1,2.4-0.3,3.3-0.6V78.3L377,78.3z M377,70.9c0-3-0.8-5.1-2.3-6.3c-1.5-1.2-3.7-1.8-6.7-1.8c-1.8,0-3.5,0.1-5,0.4 c-1.6,0.3-3.1,0.7-4.6,1.1c-1-1.7-1.5-3.7-1.5-6c1.7-0.6,3.6-1,5.7-1.3c2.1-0.3,4.1-0.5,6-0.5c5.1,0,9,1.2,11.6,3.5 c2.7,2.3,4,6,4,11.1v24.6c-1.8,0.4-4,0.8-6.5,1.3c-2.6,0.4-5.2,0.7-7.8,0.7c-2.5,0-4.8-0.2-6.8-0.7c-2-0.5-3.7-1.2-5.1-2.2 c-1.4-1-2.5-2.3-3.3-3.9c-0.8-1.6-1.1-3.5-1.1-5.7c0-2.2,0.4-4.1,1.3-5.8c0.9-1.7,2.1-3,3.6-4.1c1.5-1.1,3.3-1.9,5.3-2.4 c2-0.5,4.1-0.8,6.3-0.8c1.6,0,3,0,4,0.1c1,0.1,1.9,0.2,2.6,0.3V70.9z"></path> <path class="st18" d="M395.9,57.5c0.6-0.1,1.1-0.2,1.6-0.2c0.5-0.1,1.1-0.1,1.6-0.1c0.6,0,1.1,0,1.6,0.1c0.5,0.1,1,0.1,1.6,0.2 c0.2,0.8,0.3,1.8,0.5,3.1c0.2,1.3,0.2,2.4,0.2,3.3c0.5-0.9,1.2-1.7,2-2.6c0.8-0.9,1.7-1.6,2.7-2.3c1-0.7,2.2-1.2,3.5-1.7 c1.3-0.4,2.8-0.7,4.4-0.7c4.5,0,7.8,1.3,9.9,3.9c2.1,2.6,3.2,6.4,3.2,11.4v24.9c-0.6,0.1-1.2,0.2-1.9,0.2c-0.7,0.1-1.4,0.1-1.9,0.1 c-0.6,0-1.2,0-1.9-0.1c-0.7-0.1-1.3-0.1-1.9-0.2V73.9c0-3.6-0.6-6.3-1.7-8s-2.9-2.6-5.4-2.6c-1.4,0-2.8,0.3-4.1,0.8 c-1.3,0.5-2.4,1.3-3.4,2.4c-1,1.1-1.7,2.5-2.3,4.2c-0.6,1.7-0.9,3.8-0.9,6.2v19.9c-0.6,0.1-1.2,0.2-1.9,0.2 c-0.7,0.1-1.3,0.1-1.9,0.1c-0.6,0-1.2,0-1.9-0.1c-0.7-0.1-1.4-0.1-1.9-0.2V57.5z"></path> <path class="st18" d="M466.3,89.9c0.4,0.7,0.8,1.6,1.1,2.7c0.3,1.1,0.5,2.2,0.5,3.3c-3,1.2-6.5,1.8-10.3,1.8 c-6.5,0-11.5-1.8-14.8-5.5c-3.3-3.7-5-8.7-5-15c0-2.9,0.4-5.6,1.2-8.1c0.8-2.5,2-4.7,3.6-6.5c1.6-1.8,3.6-3.3,6-4.4 c2.4-1.1,5.2-1.6,8.3-1.6c2.1,0,4,0.1,5.7,0.4c1.6,0.3,3.2,0.7,4.7,1.2c0,0.9-0.1,1.9-0.3,3c-0.2,1.1-0.5,2.2-1,3 c-2.5-0.9-5.4-1.3-8.6-1.3c-3.9,0-6.9,1.3-8.8,3.9c-1.9,2.6-2.9,6-2.9,10.3c0,4.9,1.1,8.5,3.3,10.8c2.2,2.3,5.2,3.4,9,3.4 c1.5,0,2.9-0.1,4.2-0.3C463.6,90.8,464.9,90.4,466.3,89.9z"></path> <path class="st18" d="M481.2,79c0.1,4.3,1.2,7.4,3.3,9.4c2.1,2,5.2,3,9.4,3c3.6,0,7.1-0.6,10.3-1.9c0.4,0.8,0.7,1.7,1,2.8 c0.3,1.1,0.4,2.2,0.5,3.3c-1.7,0.7-3.5,1.2-5.5,1.6c-2,0.4-4.2,0.5-6.7,0.5c-3.6,0-6.6-0.5-9.2-1.5c-2.6-1-4.7-2.4-6.3-4.2 c-1.7-1.8-2.9-4-3.6-6.4c-0.8-2.5-1.1-5.2-1.1-8.2c0-2.9,0.4-5.6,1.1-8.1c0.7-2.5,1.9-4.7,3.4-6.6c1.5-1.9,3.5-3.3,5.8-4.4 c2.3-1.1,5.1-1.6,8.2-1.6c2.7,0,5.1,0.5,7.1,1.4c2,0.9,3.7,2.2,5.1,3.8c1.4,1.6,2.4,3.5,3.1,5.7c0.7,2.2,1.1,4.6,1.1,7.2 c0,0.7,0,1.5-0.1,2.3c-0.1,0.8-0.1,1.5-0.2,2H481.2L481.2,79z M500.6,73.3c0-1.4-0.2-2.8-0.6-4.1c-0.4-1.3-0.9-2.4-1.7-3.4 c-0.7-1-1.7-1.7-2.8-2.3c-1.1-0.6-2.5-0.9-4.1-0.9c-3.1,0-5.5,0.9-7.2,2.8c-1.7,1.9-2.7,4.5-3,7.9H500.6z"></path> <path class="st18" d="M543.2,40.6c0.6-0.1,1.2-0.2,1.9-0.2c0.7-0.1,1.3-0.1,1.8-0.1c0.6,0,1.2,0,1.9,0.1c0.7,0.1,1.3,0.1,1.9,0.2 v55c-1.9,0.6-4.1,1-6.5,1.4c-2.4,0.4-5.1,0.6-8,0.6c-2.8,0-5.4-0.3-7.8-1c-2.5-0.7-4.6-1.8-6.5-3.4c-1.8-1.6-3.3-3.6-4.4-6.1 c-1.1-2.5-1.6-5.6-1.6-9.3c0-3.2,0.5-6,1.4-8.6c0.9-2.6,2.3-4.8,4-6.7c1.7-1.9,3.8-3.3,6.2-4.3c2.4-1,5.1-1.5,8.1-1.5 c1.3,0,2.7,0.1,4,0.3c1.4,0.2,2.5,0.5,3.6,0.8V40.6L543.2,40.6z M543.2,64.1c-1-0.4-2.1-0.7-3.3-0.9c-1.2-0.2-2.4-0.3-3.8-0.3 c-2.1,0-3.9,0.4-5.4,1.1c-1.5,0.8-2.8,1.8-3.8,3.1c-1,1.3-1.7,2.9-2.2,4.7c-0.5,1.8-0.7,3.8-0.7,5.9c0.1,4.8,1.2,8.3,3.4,10.4 c2.2,2.1,5.3,3.1,9.2,3.1c1.3,0,2.6-0.1,3.7-0.2c1.1-0.1,2.1-0.3,3-0.6V64.1z"></path> <rect x="178" class="st19" width="3.4" height="176.6"></rect> </g> </svg> 